<svg xmlns="http://www.w3.org/2000/svg" viewBox="0 0 200 200" width="200" height="200">
  <path d="M16,7 H184 Q193,7 193,16 V184 Q193,193 184,193 H16 Q7,193 7,184 V16 Q7,7 16,7 Z" fill="none" stroke="#c8a96a" stroke-width="2.2"/>
  <path d="M75.63999999999999 124.028V70.32Q75.63999999999999 66.956 74.886 65.274Q74.13199999999999 63.592 71.928 62.954Q69.72399999999999 62.316 65.31599999999999 62.316Q65.08399999999999 62.316 65.08399999999999 61.620000000000005Q65.08399999999999 60.92400000000001 65.31599999999999 60.92400000000001Q68.1 60.92400000000001 71.52199999999999 61.098000000000006Q74.94399999999999 61.272000000000006 78.65599999999999 61.272000000000006Q82.71599999999998 61.272000000000006 86.07999999999998 61.098000000000006Q89.44399999999999 60.92400000000001 92.112 60.92400000000001Q92.344 60.92400000000001 92.344 61.620000000000005Q92.344 62.316 92.112 62.316Q87.70399999999998 62.316 85.49999999999999 63.012Q83.29599999999999 63.708 82.54199999999999 65.44800000000001Q81.78799999999998 67.188 81.78799999999998 70.552V124.028Q81.78799999999998 127.39200000000001 82.48399999999998 129.132Q83.17999999999999 130.872 85.44199999999998 131.452Q87.70399999999998 132.032 92.112 132.032Q92.344 132.032 92.344 132.728Q92.344 133.424 92.112 133.424Q89.32799999999999 133.424 86.02199999999999 133.308Q82.71599999999998 133.192 78.65599999999999 133.192Q74.94399999999999 133.192 71.46399999999998 133.308Q67.98399999999998 133.424 65.19999999999999 133.424Q64.96799999999999 133.424 64.96799999999999 132.728Q64.96799999999999 132.032 65.19999999999999 132.032Q69.60799999999999 132.032 71.86999999999999 131.452Q74.13199999999999 130.872 74.886 129.132Q75.63999999999999 127.39200000000001 75.63999999999999 124.028ZM104.29199999999999 116.60400000000001 85.26799999999999 92.94 90.13999999999999 89.46000000000001 106.844 110.456Q112.29599999999999 117.30000000000001 116.06599999999999 121.534Q119.83599999999998 125.768 122.38799999999999 127.97200000000001Q124.94 130.17600000000002 126.91199999999999 131.046Q128.884 131.916 130.682 131.974Q132.48 132.032 134.684 132.032Q135.03199999999998 132.032 135.03199999999998 132.728Q135.03199999999998 133.424 134.684 133.424Q129.464 133.424 126.332 133.424Q123.19999999999999 133.424 121.692 133.424Q120.88 133.424 120.35799999999999 133.48200000000003Q119.83599999999998 133.54000000000002 119.256 133.54000000000002Q117.63199999999999 133.54000000000002 116.70399999999998 132.96Q115.77599999999998 132.38 114.55799999999999 130.64Q113.33999999999999 128.9 111.01999999999998 125.536Q108.69999999999999 122.17200000000001 104.29199999999999 116.60400000000001ZM77.49599999999998 99.32000000000001 107.30799999999999 69.624Q111.71599999999998 65.21600000000001 111.19399999999999 63.766000000000005Q110.672 62.316 104.52399999999999 62.316Q104.29199999999999 62.316 104.29199999999999 61.620000000000005Q104.29199999999999 60.92400000000001 104.52399999999999 60.92400000000001Q107.30799999999999 60.92400000000001 110.14999999999999 61.098000000000006Q112.99199999999999 61.272000000000006 117.63199999999999 61.272000000000006Q121.92399999999999 61.272000000000006 124.41799999999999 61.098000000000006Q126.91199999999999 60.92400000000001 129.23199999999997 60.92400000000001Q129.57999999999998 60.92400000000001 129.57999999999998 61.620000000000005Q129.57999999999998 62.316 129.23199999999997 62.316Q125.288 62.316 120.06799999999998 63.940000000000005Q114.84799999999998 65.56400000000001 109.976 70.32L80.27999999999999 99.20400000000001Z" fill="#c8a96a"/>
</svg>